# xmcd
#
# Track frame offsets:
#	150
#	15411
#	31048
#	47576
#	62486
#	74445
#	92276
#	109292
#	127309
#	140975
#	161361
#	178785
#	194067
#
# Disc length: 2814 seconds
#
# Revision: 0
# Processed by: cddbd v1.5.2PL0 Copyright (c) Steve Scherf et al.
# Submitted via: EasyCDDAExtractor 16.0.6.1
#
DISCID=b60afc0d
DTITLE=Sérgio Reis - Sérgio Reis - 50 Anos Cantando O Brasil Vol. 1
DYEAR=1900
DGENRE=
TTITLE0=O menino da porteira
TTITLE1=A tristeza do Jeca
TTITLE2=Chico Mineiro
TTITLE3=Panela velha
TTITLE4=Fio de cabelo
TTITLE5=Disparada
TTITLE6=Couro de boi
TTITLE7=Bicho do mato
TTITLE8=De papo pro ar
TTITLE9=Pinga ne mim
TTITLE10=Romaria
TTITLE11=O lobo da estrada
TTITLE12=É disso que o velho gosta
EXTD=
EXTT0=
EXTT1=
EXTT2=
EXTT3=
EXTT4=
EXTT5=
EXTT6=
EXTT7=
EXTT8=
EXTT9=
EXTT10=
EXTT11=
EXTT12=
PLAYORDER=
